<svg width="193" height="47" viewBox="0 0 193 47" fill="none" xmlns="http://www.w3.org/2000/svg">
<rect x="0.25" y="0.657227" width="46" height="46" rx="14" fill="#F4F4F8"/>
<circle cx="18.9014" cy="28.0058" r="9.12461" transform="rotate(45 18.9014 28.0058)" fill="#3761F3"/>
<circle cx="31.5971" cy="15.3102" r="5.29724" transform="rotate(45 31.5971 15.3102)" stroke="#3761F3" stroke-width="2"/>
<path d="M69.346 33.0172C67.618 33.0172 66.126 32.6412 64.87 31.8892C63.622 31.1372 62.658 30.0852 61.978 28.7332C61.306 27.3812 60.97 25.8092 60.97 24.0172C60.97 22.2252 61.306 20.6532 61.978 19.3012C62.658 17.9492 63.622 16.8972 64.87 16.1452C66.126 15.3932 67.618 15.0172 69.346 15.0172C71.33 15.0172 72.994 15.5092 74.338 16.4932C75.69 17.4772 76.642 18.8092 77.194 20.4892L73.906 21.4012C73.586 20.3532 73.046 19.5412 72.286 18.9652C71.526 18.3812 70.546 18.0892 69.346 18.0892C68.25 18.0892 67.334 18.3332 66.598 18.8212C65.87 19.3092 65.322 19.9972 64.954 20.8852C64.586 21.7732 64.402 22.8172 64.402 24.0172C64.402 25.2172 64.586 26.2612 64.954 27.1492C65.322 28.0372 65.87 28.7252 66.598 29.2132C67.334 29.7012 68.25 29.9452 69.346 29.9452C70.546 29.9452 71.526 29.6532 72.286 29.0692C73.046 28.4852 73.586 27.6732 73.906 26.6332L77.194 27.5452C76.642 29.2252 75.69 30.5572 74.338 31.5412C72.994 32.5252 71.33 33.0172 69.346 33.0172ZM91.3802 19.6972V32.6572H88.2603V24.7372L82.4043 32.6572H79.8123V19.6972H82.9323V27.3532L88.8123 19.6972H91.3802ZM94.7185 32.6572V19.6972H97.3585L101.871 28.0972L106.383 19.6972H109.023V32.6572H105.903V26.2012L102.447 32.6572H101.295L97.8385 26.2012V32.6572H94.7185ZM130.276 35.5372V32.6572H117.196V15.3772H120.46V29.7772H128.332V15.8572H131.596V29.7772H133.54V35.5372H130.276ZM141.477 33.0172C140.149 33.0172 138.977 32.7332 137.961 32.1652C136.953 31.5892 136.161 30.8012 135.585 29.8012C135.017 28.7932 134.733 27.6412 134.733 26.3452C134.733 24.9292 135.013 23.6972 135.573 22.6492C136.133 21.6012 136.905 20.7892 137.889 20.2132C138.873 19.6292 140.005 19.3372 141.285 19.3372C142.645 19.3372 143.801 19.6572 144.753 20.2972C145.705 20.9372 146.409 21.8372 146.865 22.9972C147.321 24.1572 147.481 25.5212 147.345 27.0892H144.117V25.8892C144.117 24.5692 143.905 23.6212 143.481 23.0452C143.065 22.4612 142.381 22.1692 141.429 22.1692C140.317 22.1692 139.497 22.5092 138.969 23.1892C138.449 23.8612 138.189 24.8572 138.189 26.1772C138.189 27.3852 138.449 28.3212 138.969 28.9852C139.497 29.6412 140.269 29.9692 141.285 29.9692C141.925 29.9692 142.473 29.8292 142.929 29.5492C143.385 29.2692 143.733 28.8652 143.973 28.3372L147.237 29.2732C146.749 30.4572 145.977 31.3772 144.921 32.0332C143.873 32.6892 142.725 33.0172 141.477 33.0172ZM137.181 27.0892V24.6652H145.773V27.0892H137.181ZM150.031 32.6572V19.6972H153.295V24.6412H158.623V19.6972H161.887V32.6572H158.623V27.6892H153.295V32.6572H150.031ZM168.411 32.6572V22.5772H164.163V19.6972H175.923V22.5772H171.675V32.6572H168.411ZM184.563 33.0172C183.275 33.0172 182.199 32.7172 181.335 32.1172C180.471 31.5172 179.819 30.7012 179.379 29.6692C178.947 28.6372 178.731 27.4732 178.731 26.1772C178.731 24.8812 178.947 23.7172 179.379 22.6852C179.811 21.6532 180.447 20.8372 181.287 20.2372C182.127 19.6372 183.163 19.3372 184.395 19.3372C185.635 19.3372 186.715 19.6332 187.635 20.2252C188.555 20.8172 189.267 21.6292 189.771 22.6612C190.283 23.6852 190.539 24.8572 190.539 26.1772C190.539 27.4732 190.287 28.6372 189.783 29.6692C189.287 30.7012 188.591 31.5172 187.695 32.1172C186.799 32.7172 185.755 33.0172 184.563 33.0172ZM178.179 38.4172V19.6972H181.059V28.5772H181.467V38.4172H178.179ZM184.035 30.1132C184.739 30.1132 185.315 29.9372 185.763 29.5852C186.211 29.2332 186.543 28.7612 186.759 28.1692C186.975 27.5692 187.083 26.9052 187.083 26.1772C187.083 25.4572 186.971 24.8012 186.747 24.2092C186.523 23.6092 186.175 23.1332 185.703 22.7812C185.239 22.4212 184.643 22.2412 183.915 22.2412C183.235 22.2412 182.683 22.4052 182.259 22.7332C181.843 23.0612 181.539 23.5212 181.347 24.1132C181.155 24.7052 181.059 25.3932 181.059 26.1772C181.059 26.9612 181.155 27.6492 181.347 28.2412C181.539 28.8332 181.851 29.2932 182.283 29.6212C182.723 29.9492 183.307 30.1132 184.035 30.1132Z" fill="#2F3144"/>
</svg>
